<?xml version="1.0" standalone="no"?><svg xmlns="http://www.w3.org/2000/svg" viewBox="0 0 1440 320"><path fill="#5000ca" fill-opacity="1" d="M0,192L21.8,165.3C43.6,139,87,85,131,90.7C174.5,96,218,160,262,181.3C305.5,203,349,181,393,192C436.4,203,480,245,524,240C567.3,235,611,181,655,160C698.2,139,742,149,785,176C829.1,203,873,245,916,240C960,235,1004,181,1047,138.7C1090.9,96,1135,64,1178,74.7C1221.8,85,1265,139,1309,160C1352.7,181,1396,171,1418,165.3L1440,160L1440,0L1418.2,0C1396.4,0,1353,0,1309,0C1265.5,0,1222,0,1178,0C1134.5,0,1091,0,1047,0C1003.6,0,960,0,916,0C872.7,0,829,0,785,0C741.8,0,698,0,655,0C610.9,0,567,0,524,0C480,0,436,0,393,0C349.1,0,305,0,262,0C218.2,0,175,0,131,0C87.3,0,44,0,22,0L0,0Z"></path></svg>